<svg fill="#18292D" xmlns="http://www.w3.org/2000/svg" xmlns:xlink="http://www.w3.org/1999/xlink" version="1.1" x="0px" y="0px" viewBox="0 0 100 100" style="enable-background:new 0 0 100 100;" xml:space="preserve"><style type="text/css">
	.st0{fill:#18292D;}
</style><path class="st0" d="M90,5H10c-2.8,0-5,2.2-5,5v85h90V10C95,7.2,92.8,5,90,5z M10,20h65v10H10V20z M90,90H10V35h80V90z M90,30H80V20  h10V30z"></path><path class="st0" d="M59.3,85l13.2-13.2V53.2L59.3,40H40.7L27.5,53.2v18.6L40.7,85H59.3z M32.5,69.7V55.3L42.8,45h14.5l3.4,3.4  L35.9,73.1L32.5,69.7z M64.1,51.9l3.4,3.4v14.5L57.2,80H42.8l-3.4-3.4L64.1,51.9z"></path></svg>