<svg fill="#18292D" xmlns="http://www.w3.org/2000/svg" xmlns:xlink="http://www.w3.org/1999/xlink" version="1.1" x="0px" y="0px" viewBox="0 0 64 64" style="enable-background:new 0 0 64 64;" xml:space="preserve"><g><g><g><g><g><g><g><g><path d="M51,53H13V10.2h38V53z M15,51h34V12.2H15V51z"></path></g><g><path d="M51,12.2H13V4.4C13,2.5,14.7,1,16.8,1h30.3C49.3,1,51,2.5,51,4.4V12.2z M15,10.2h34V4.4C49,3.6,48.2,3,47.2,3H16.8          c-1,0-1.8,0.6-1.8,1.4V10.2z"></path></g></g><g><path d="M47.1,63H16.8c-2.2,0-3.8-1.5-3.8-3.4V51h37.9v8.6C50.9,61.5,49.3,63,47.1,63z M15,53v6.6c0,0.8,0.8,1.4,1.8,1.4         h30.3c1,0,1.8-0.6,1.8-1.4V53H15z"></path></g></g><g><path d="M36.7,7.6h-8.6c-0.6,0-1-0.4-1-1s0.4-1,1-1h8.6c0.6,0,1,0.4,1,1S37.2,7.6,36.7,7.6z"></path></g><g><path d="M32.4,60.3c-1.8,0-3.2-1.4-3.2-3.2s1.4-3.2,3.2-3.2s3.2,1.4,3.2,3.2S34.2,60.3,32.4,60.3z M32.4,56        c-0.7,0-1.2,0.5-1.2,1.2s0.5,1.2,1.2,1.2c0.7,0,1.2-0.5,1.2-1.2S33.1,56,32.4,56z"></path></g></g></g></g><g><g><path d="M39.3,44.6H24.7L17.4,32l7.3-12.6h14.6L46.6,32L39.3,44.6z M25.9,42.6h12.3L44.3,32l-6.1-10.6H25.9L19.7,32L25.9,42.6z"></path></g><g><path d="M25.3,44.6c-0.2,0-0.3,0-0.5-0.1c-0.5-0.3-0.6-0.9-0.4-1.4l13.4-23.2c0.3-0.5,0.9-0.6,1.4-0.4c0.5,0.3,0.6,0.9,0.4,1.4      L26.2,44.1C26,44.4,25.6,44.6,25.3,44.6z"></path></g><g><g><path d="M26.6,26.8l-3.4,9.9h1.8l1-3h3l1,3h1.8l-3.4-9.9H26.6z M28.6,32.3h-2.1l0.8-2.4c0.1-0.3,0.2-0.5,0.2-0.8       c0.1,0.3,0.2,0.6,0.3,0.8L28.6,32.3z"></path></g><g><path d="M39.5,27.9c-0.9-0.8-2.2-1.2-4-1.2c-0.9,0-1.8,0.1-2.6,0.2l-0.2,0v9.7l0.2,0c0.7,0.1,1.4,0.1,2.2,0.1       c1.9,0,3.4-0.5,4.4-1.4c0.9-0.9,1.4-2.2,1.4-3.8C40.9,30,40.4,28.8,39.5,27.9z M39.1,31.5c0,2.4-1.3,3.7-3.8,3.7       c-0.3,0-0.7,0-1,0v-7c0.3,0,0.6-0.1,1.2-0.1c1.2,0,2.1,0.3,2.7,0.9C38.8,29.7,39.1,30.5,39.1,31.5z"></path></g></g></g></g></g></svg>