<svg xmlns="http://www.w3.org/2000/svg" xmlns:xlink="http://www.w3.org/1999/xlink" width="100" height="100" viewBox="0 0 100 100"><g><g transform="translate(50 50) scale(0.69 0.69) rotate(0) translate(-50 -50)" style="fill:#061d5c"><svg fill="#061d5c" xmlns="http://www.w3.org/2000/svg" data-name="Layer 1" viewBox="0 0 100 100" x="0px" y="0px"><title>Noun icons</title><path d="M50,44.49a6.65,6.65,0,1,0,6.65,6.65A6.66,6.66,0,0,0,50,44.49Zm0,10.3a3.65,3.65,0,1,1,3.65-3.65A3.65,3.65,0,0,1,50,54.79Z"></path><path d="M38.85,64.62a1.5,1.5,0,0,0-.35,1V71.7A1.5,1.5,0,0,0,40,73.2H60a1.5,1.5,0,0,0,1.5-1.5V65.58a1.5,1.5,0,0,0-.35-1,14.56,14.56,0,0,0-22.29,0ZM58.5,70.2h-17v-4a11.56,11.56,0,0,1,17,0Z"></path><path d="M71.4,31.75H51.5V29.93a5.49,5.49,0,0,0,4-5.27v-1L68,11.06a1.5,1.5,0,1,0-2.13-2.11L54,20.9,52.11,19l7.89-8a1.5,1.5,0,1,0-2.13-2.11L50,16.88,42.13,8.94A1.5,1.5,0,1,0,40,11.06L50.38,21.53H46.64L34.16,8.94A1.5,1.5,0,1,0,32,11.06L44.52,23.65v1a5.49,5.49,0,0,0,4,5.27v1.82H28.6a1.5,1.5,0,0,0-1.5,1.5v58.4a1.5,1.5,0,0,0,1.5,1.5H71.4a1.5,1.5,0,0,0,1.5-1.5V33.25A1.5,1.5,0,0,0,71.4,31.75ZM47.52,24.66v-.13h5v.13A2.48,2.48,0,0,1,51,26.91a1.49,1.49,0,0,0-2.06,0A2.48,2.48,0,0,1,47.52,24.66ZM69.9,90.15H30.1V34.75H48.5v3a1.5,1.5,0,0,0,3,0v-3H69.9Z"></path><path d="M46.25,80.25H40a1.5,1.5,0,0,0,0,3h6.25a1.5,1.5,0,0,0,0-3Z"></path><path d="M60,75.75H40a1.5,1.5,0,0,0,0,3H60a1.5,1.5,0,0,0,0-3Z"></path></svg></g></g></svg>
