<svg xmlns="http://www.w3.org/2000/svg" xmlns:xlink="http://www.w3.org/1999/xlink" width="100" height="100" viewBox="0 0 100 100"><g><g transform="translate(50 50) scale(0.69 0.69) rotate(0) translate(-50 -50)" style="fill:#18292D"><svg fill="#18292D" xmlns="http://www.w3.org/2000/svg" xmlns:xlink="http://www.w3.org/1999/xlink" version="1.1" x="0px" y="0px" viewBox="0 0 100 100" enable-background="new 0 0 100 100" xml:space="preserve"><g><g><path d="M59.2,53.5c0-5.1-4.1-9.2-9.2-9.2s-9.2,4.1-9.2,9.2c0,5.1,4.1,9.2,9.2,9.2S59.2,58.6,59.2,53.5z M44.8,53.5    c0-2.9,2.3-5.2,5.2-5.2s5.2,2.3,5.2,5.2c0,2.9-2.3,5.2-5.2,5.2S44.8,56.3,44.8,53.5z"></path><path d="M36.6,75.7l-1.2,5.6c-0.3,1.6,0,3.2,1.1,4.5c1,1.3,2.5,2,4.2,2h18.8c1.6,0,3.1-0.7,4.2-2c1-1.3,1.4-2.9,1.1-4.5l-1.2-5.6    c-1.4-6.2-7-10.8-13.4-10.8S38,69.4,36.6,75.7z M50,68.9c4.5,0,8.5,3.2,9.5,7.6l1.2,5.6c0.1,0.5-0.1,0.9-0.3,1.1    c-0.2,0.2-0.5,0.5-1,0.5H40.6c-0.6,0-0.9-0.3-1-0.5c-0.1-0.2-0.4-0.6-0.3-1.1l1.2-5.6C41.5,72.1,45.5,68.9,50,68.9z"></path><path d="M19.2,48.3c-4.3,0-7.7,3.5-7.7,7.7s3.5,7.7,7.7,7.7s7.7-3.5,7.7-7.7S23.5,48.3,19.2,48.3z M19.2,59.8    c-2.1,0-3.7-1.7-3.7-3.7s1.7-3.7,3.7-3.7s3.7,1.7,3.7,3.7S21.3,59.8,19.2,59.8z"></path><path d="M11.7,83.6h14.9c1.4,0,2.7-0.6,3.6-1.7c0.9-1.1,1.2-2.5,0.9-3.9l-1-4.4c-1.1-5.1-5.8-8.9-11-8.9s-9.9,3.7-11,8.9l-1,4.4    c-0.3,1.4,0,2.8,0.9,3.9C9,83,10.3,83.6,11.7,83.6z M11.1,78.9l1-4.4c0.7-3.3,3.7-5.7,7.1-5.7c3.4,0,6.4,2.4,7.1,5.7l1,4.4    c0.1,0.3-0.1,0.5-0.1,0.5c-0.1,0.1-0.2,0.2-0.5,0.2H11.7c-0.3,0-0.4-0.1-0.5-0.2C11.2,79.3,11.1,79.1,11.1,78.9z"></path><path d="M73.1,56.1c0,4.3,3.5,7.7,7.7,7.7s7.7-3.5,7.7-7.7s-3.5-7.7-7.7-7.7S73.1,51.8,73.1,56.1z M80.8,52.3    c2.1,0,3.7,1.7,3.7,3.7s-1.7,3.7-3.7,3.7s-3.7-1.7-3.7-3.7S78.8,52.3,80.8,52.3z"></path><path d="M92.8,78l-1-4.4c-1.1-5.1-5.8-8.9-11-8.9s-9.9,3.7-11,8.9l-1,4.4c-0.3,1.4,0,2.8,0.9,3.9c0.9,1.1,2.2,1.7,3.6,1.7h14.9    c1.4,0,2.7-0.6,3.6-1.7C92.8,80.8,93.1,79.4,92.8,78z M88.8,79.4c-0.1,0.1-0.2,0.2-0.5,0.2H73.4c-0.3,0-0.4-0.2-0.5-0.2    c-0.1-0.1-0.2-0.3-0.1-0.5l1-4.4c0.7-3.3,3.7-5.7,7.1-5.7c3.4,0,6.4,2.4,7.1,5.7l1,4.4C88.9,79.1,88.8,79.3,88.8,79.4z"></path><path d="M35.4,42.5c0.4,0.8,1.3,1.3,2.2,1.3c0.4,0,0.9-0.1,1.3-0.3l8.9-5.2h1.8c4.5,0,8.4-2.7,10-6.6c0.3,0,0.5,0.1,0.8,0.1h1.5    l7.7,4.5c0.4,0.2,0.8,0.3,1.2,0.3c0.7,0,1.3-0.3,1.8-0.8c0.8-0.8,0.9-2.1,0.3-3l-0.7-1.1c2.1-0.3,4-1.2,5.5-2.7    c1.8-1.8,2.8-4.3,2.8-6.9c0-5.4-4.4-9.7-9.7-9.7H60.3c-2.6,0-5,1-6.9,2.9c-0.5,0.5-1,1.1-1.4,1.8c-0.8-0.2-1.6-0.3-2.5-0.3H37.7    c-6,0-10.9,4.9-10.9,10.9c0,5.6,4.3,10.2,9.7,10.8l-1.1,1.7C35,40.7,34.9,41.7,35.4,42.5z M56.3,17.9c1.1-1.1,2.5-1.7,4.1-1.7    h10.4c3.2,0,5.7,2.6,5.7,5.7c0,1.5-0.6,3-1.7,4.1c-1.1,1.1-2.5,1.7-4.1,1.7h-2.2c-0.7,0-1.4,0.4-1.8,1c-0.2,0.3-0.3,0.7-0.2,1.1    L63.4,28c-0.3-0.2-0.7-0.3-1-0.3h-2c0-0.1,0-0.2,0-0.3c0-3.7-1.8-6.9-4.6-8.9C55.9,18.3,56.1,18.1,56.3,17.9z M30.8,27.4    c0-3.8,3.1-6.9,6.9-6.9h11.9c3.8,0,6.9,3.1,6.9,6.9c0,0.5-0.1,1-0.1,1.4c0,0,0,0,0,0c0,0,0,0,0,0c-0.7,3.1-3.4,5.4-6.7,5.4h-2.3    c-0.4,0-0.7,0.1-1,0.3L42,37c0.2-0.5,0.2-1.1-0.1-1.7c-0.4-0.6-1-1-1.8-1h-2.5C33.9,34.3,30.8,31.2,30.8,27.4z"></path></g></g></svg></g></g></svg>
