<svg xmlns="http://www.w3.org/2000/svg" xmlns:xlink="http://www.w3.org/1999/xlink" width="100" height="100" viewBox="0 0 100 100"><g><g transform="translate(50 50) scale(0.69 0.69) rotate(0) translate(-50 -50)" style="fill:#575962"><svg fill="#575962" xmlns="http://www.w3.org/2000/svg" xmlns:xlink="http://www.w3.org/1999/xlink" xml:space="preserve" version="1.1" style="shape-rendering:geometricPrecision;text-rendering:geometricPrecision;image-rendering:optimizeQuality;" viewBox="0 0 333 333" x="0px" y="0px" fill-rule="evenodd" clip-rule="evenodd"><defs><style type="text/css">
   
    .fil0 {fill:#575962;fill-rule:nonzero}
   
  </style></defs><g><path class="fil0" d="M177 106c-9,4 -16,-10 -6,-14 46,-21 89,28 69,70 -4,9 -17,3 -13,-6 14,-30 -17,-65 -50,-50zm-49 -1c0,0 7,-8 5,-19 -2,-11 -15,-29 -27,-40 -12,-12 -31,-19 -46,-4 -15,15 -25,29 -25,29 0,0 -5,13 2,35 20,74 116,170 190,191 23,6 35,1 35,1 0,0 15,-9 30,-24 15,-15 7,-34 -4,-47 -12,-12 -29,-25 -40,-27 -12,-2 -20,5 -20,5 0,0 -18,15 -22,18 -3,3 -6,1 -19,-6 -14,-7 -64,-56 -71,-71 -6,-13 -8,-15 -6,-19 3,-3 18,-22 18,-22zm51 -47c-10,2 -13,-13 -3,-15 68,-11 125,48 114,114 -2,10 -16,7 -15,-3 10,-56 -40,-105 -96,-96z"></path></g></svg></g></g></svg>