<svg fill="#18292D" xmlns="http://www.w3.org/2000/svg" xmlns:xlink="http://www.w3.org/1999/xlink" version="1.1" x="0px" y="0px" viewBox="0 0 512 512" style="enable-background:new 0 0 512 512;" xml:space="preserve"><g><g><g><path d="M396,426H116c-5.523,0-10-4.478-10-10V96c0-5.523,4.477-10,10-10h280c5.522,0,10,4.477,10,10v320     C406,421.522,401.522,426,396,426z M126,406h260V106H126V406z"></path></g><g><path d="M377,496H135c-15.991,0-29-13.01-29-29v-51c0-5.522,4.477-10,10-10h280c5.522,0,10,4.478,10,10v51     C406,482.99,392.99,496,377,496z M126,426v41c0,4.963,4.038,9,9,9h242c4.963,0,9-4.037,9-9v-41H126z"></path></g><g><path d="M396,106H116c-5.523,0-10-4.477-10-10V45c0-15.991,13.009-29,29-29h242c15.99,0,29,13.009,29,29v51     C406,101.523,401.522,106,396,106z M126,86h260V45c0-4.962-4.037-9-9-9H135c-4.962,0-9,4.038-9,9V86z"></path></g><rect x="246" y="436" width="30" height="30"></rect><circle cx="261" cy="61" r="15"></circle><g><path d="M346,336H166c-5.523,0-10-4.478-10-10v-60c0-5.522,4.477-10,10-10h29.999c5.523,0,10,4.478,10,10s-4.477,10-10,10H176v40     h160v-40h-10c-5.522,0-10-4.478-10-10s4.478-10,10-10h20c5.522,0,10,4.478,10,10v60C356,331.522,351.522,336,346,336z"></path></g><g><path d="M256,296c-5.523,0-10-4.478-10-10v-85.858l-12.929,12.929c-3.905,3.905-10.237,3.905-14.143,0     c-3.905-3.905-3.905-10.237,0-14.143l30-30c2.859-2.859,7.159-3.717,10.898-2.167c3.736,1.548,6.173,5.194,6.173,9.239v110     C266,291.522,261.522,296,256,296z"></path></g><g><path d="M286,216c-2.56,0-5.118-0.977-7.071-2.929l-30-30c-3.905-3.905-3.905-10.237,0-14.143c3.906-3.904,10.237-3.903,14.143,0     l30,30c3.905,3.905,3.905,10.237,0,14.143C291.118,215.023,288.56,216,286,216z"></path></g></g></g></svg>