<svg fill="#18292D" xmlns="http://www.w3.org/2000/svg" xmlns:xlink="http://www.w3.org/1999/xlink" version="1.1" x="0px" y="0px" viewBox="0 0 50 50" enable-background="new 0 0 50 50" xml:space="preserve"><g><path d="M46.85,6.025H3.16c-1.19,0-2.16,0.96-2.16,2.15v27.47h48v-27.47C49,6.985,48.04,6.025,46.85,6.025z M25,31.365   c-5.39,0-9.78-4.39-9.78-9.7799c0-5.4001,4.39-9.79,9.78-9.79c5.4,0,9.79,4.3899,9.79,9.79C34.79,26.975,30.4,31.365,25,31.365z"></path><path d="M1,41.8251c0,1.1899,0.97,2.1499,2.16,2.1499h43.69c1.19,0,2.15-0.96,2.15-2.1499V37.145H1V41.8251z M10.6836,40.0587   h19.3102c0.2-0.4929,0.683-0.844,1.2452-0.844c0.6536,0,1.201,0.4741,1.3193,1.095h6.767v0.5h-6.767   c-0.1186,0.6204-0.6659,1.0942-1.3192,1.0942c-0.5626,0-1.0458-0.3517-1.2455-0.8452H10.6836V40.0587z"></path><path d="M25.0043,13.299c-4.575,0-8.2838,3.7087-8.2838,8.2837c0,4.5751,3.7088,8.2838,8.2838,8.2838   c4.575,0,8.2838-3.7087,8.2838-8.2838C33.2881,17.0077,29.5793,13.299,25.0043,13.299z M21.9131,26.5585V17.312l8.2017,4.6257   L21.9131,26.5585z"></path></g></svg>