<svg fill="#18292D" xmlns="http://www.w3.org/2000/svg" xmlns:xlink="http://www.w3.org/1999/xlink" version="1.1" x="0px" y="0px" viewBox="0 0 50 50" enable-background="new 0 0 50 50" xml:space="preserve"><g><path d="M48.9,34.3c-0.7-2.3-4.3-1.6-4.3-1.6l-11.1,3.6c0.2,0.5,0.1,1.2,0,1.7c-0.4,1.5-2.2,1.9-3.8,2h-0.1c-2-0.2-7.4-0.8-9.1,0   c1.7-1.3,7.1-1,9.2-0.8c3.1-0.2,3.8-1.7,3.4-2.8c-0.8-2.3-4.7-2-4.7-2c-6.5-0.1-9.6-1.4-9.6-1.4c-4.8-2.4-8.3,1.4-8.3,1.4   c-0.9,0.8-1.9,1.6-3.2,2.3c0.1,0.1-0.1-0.1,4.7,7.9c0.2,0.3,0.3,0.6,0.3,0.9c6.3-1.2,14-0.2,14-0.2c4.1,0.6,5-0.4,5-0.4   c1.7-1.1,14.9-8,14.9-8C49.9,35.7,48.9,34.3,48.9,34.3z"></path><path d="M6.4,37.4c-0.5-0.9-1.6-1.2-2.5-0.7L2,37.6c-1,0.5-1.3,1.7-0.8,2.7l4.6,7.8c0.5,0.9,1.6,1.2,2.5,0.7l1.8-0.9   c1-0.5,1.3-1.7,0.8-2.7L6.4,37.4z"></path><path d="M33,20.2c0,0.5,0.4,0.9,0.9,0.8c0.5,0,0.9-0.4,0.9-0.9C34.4,12.2,24.3,8.8,19,14.7c-2.5,2.7-4,7.8,3.1,16.1   c0.3,0.4,0.9,0.4,1.3,0.1c0.4-0.3,0.4-0.9,0.1-1.3c-3.4-4.1-6.8-9.7-3.1-13.7C24.6,11.2,32.6,13.9,33,20.2z"></path><path d="M17.2,5c0.1-0.1,8-4.8,17.3,0c0.4,0.2,1,0.1,1.2-0.4c0.2-0.4,0.1-1-0.4-1.2c-10.2-5.3-18.7-0.2-19.1,0   c-0.4,0.3-0.6,0.8-0.3,1.2C16.2,5.1,16.8,5.2,17.2,5z"></path><path d="M26,18.9c-0.5,0-0.9,0.3-1,0.8c0,0.1-0.2,3.3,2.1,5.8c2.1,2.1,5.1,2.8,8.1,2.7c0.5,0,0.9-0.4,0.9-0.9   c0-0.5-0.4-0.9-0.9-0.9c-3.1,0.1-5.3-0.6-6.8-2.1c-1.8-1.9-1.7-4.4-1.7-4.4C26.9,19.3,26.5,18.9,26,18.9z"></path><path d="M36.7,14c-8.7-12.8-29-3-22.1,12.2c0.2,0.5,0.7,0.7,1.2,0.5c0.4-0.2,0.7-0.7,0.4-1.2C10.4,12.2,27.8,4.1,35.2,15   c0,0.1,3,5,0.3,7.1c-0.9,0.7-2.2,0.9-3.3,0.5c-1.1-0.4-1.7-1.2-1.7-2.3c-0.1-3.6-3-5.4-5.5-4.6c-3,0.8-4.5,4.6-3.6,7.6   c0.9,2.9,3.7,5.6,8.4,8.1c0.4,0.2,1,0.1,1.2-0.4s0.1-1-0.4-1.2c-4.3-2.2-6.8-4.6-7.5-7c-0.8-2.5,0.7-4.9,2.4-5.3   c1.5-0.4,3.1,0.6,3.2,3c0.1,1.9,1.1,3.3,2.9,4c1.7,0.6,3.6,0.3,5-0.8C40.5,20.4,36.9,14.3,36.7,14z"></path><path d="M13.5,12.5c0.1-0.1,5-6.1,13-6.1c0.1,0,5.5-0.2,11.7,6.1c0.3,0.3,0.9,0.3,1.3,0c0.3-0.4,0.3-0.9,0-1.3   C33.3,5,27.7,4.7,26.7,4.7c-6.1,0-11.7,3.1-14.6,6.7c-0.3,0.4-0.3,1,0.1,1.3C12.7,13,13.2,12.9,13.5,12.5z"></path></g></svg>