<svg fill="#18292D" xmlns="http://www.w3.org/2000/svg" xmlns:xlink="http://www.w3.org/1999/xlink" version="1.1" x="0px" y="0px" viewBox="0 0 100 100" enable-background="new 0 0 100 100" xml:space="preserve"><g><path fill-rule="evenodd" clip-rule="evenodd" d="M34.201,61.65c-1.135-1.133-2.518-1.7-4.15-1.7s-3.018,0.567-4.15,1.7   s-1.699,2.517-1.699,4.15s0.566,3.017,1.699,4.15s2.518,1.7,4.15,1.7s3.016-0.567,4.15-1.7c0.898-0.9,1.449-1.983,1.648-3.25   c0.035-0.3,0.051-0.6,0.051-0.9C35.9,64.167,35.334,62.783,34.201,61.65z M15.1,49.2c-0.699,0-1.316,0.233-1.85,0.7   c-0.066,0.033-0.1,0.066-0.1,0.1c-0.533,0.533-0.801,1.183-0.801,1.95c0,0.8,0.268,1.467,0.801,2c0.533,0.5,1.184,0.75,1.949,0.75   c0.801,0,1.467-0.25,2-0.75c0.334-0.367,0.568-0.767,0.701-1.2c0.066-0.233,0.1-0.5,0.1-0.8c0-0.767-0.266-1.417-0.801-1.95   C16.566,49.466,15.9,49.2,15.1,49.2z M24.201,38.35c0,1.634,0.566,3.017,1.699,4.15s2.518,1.7,4.15,1.7s3.016-0.566,4.15-1.7   c0.467-0.5,0.865-1.034,1.199-1.6c0.334-0.8,0.5-1.65,0.5-2.55c0-1.633-0.566-3.017-1.699-4.15c-1.135-1.133-2.518-1.7-4.15-1.7   s-3.018,0.566-4.15,1.7S24.201,36.716,24.201,38.35z M38.6,24c-0.666,0-1.266,0.216-1.799,0.65c-0.066,0.033-0.1,0.083-0.1,0.15   c-0.533,0.533-0.801,1.167-0.801,1.9c0,0.8,0.268,1.467,0.801,2c0.533,0.534,1.166,0.8,1.898,0.8c0.801,0,1.467-0.267,2-0.8   c0.334-0.333,0.584-0.733,0.75-1.2c0.035-0.233,0.051-0.5,0.051-0.8c0-0.733-0.266-1.367-0.801-1.9C40.066,24.267,39.4,24,38.6,24z    M51,69.55c0,0.2,0.018,0.417,0.051,0.65c0.133,1.333,0.684,2.5,1.65,3.5c1.133,1.133,2.516,1.7,4.148,1.7   c1.635,0,3.018-0.567,4.15-1.7c1.135-1.133,1.701-2.517,1.701-4.15S62.135,66.533,61,65.4c-1.133-1.133-2.516-1.7-4.15-1.7   c-1.633,0-3.016,0.567-4.148,1.7C51.566,66.533,51,67.917,51,69.55z M76.6,68.25c0.801,0,1.467-0.267,2-0.8   c0.334-0.333,0.584-0.733,0.75-1.2c0.035-0.233,0.051-0.5,0.051-0.8c0-0.767-0.266-1.4-0.801-1.9c-0.533-0.533-1.199-0.8-2-0.8   c-0.666,0-1.266,0.216-1.799,0.65c-0.066,0.033-0.1,0.083-0.1,0.15c-0.533,0.5-0.801,1.133-0.801,1.9c0,0.8,0.268,1.467,0.801,2   C75.234,67.983,75.867,68.25,76.6,68.25z M55.451,47.6c-0.801-0.767-1.783-1.15-2.951-1.15c-1.066,0-2,0.35-2.799,1.05   c-0.066,0.033-0.135,0.066-0.201,0.1c-0.766,0.8-1.15,1.784-1.15,2.95c0,1.2,0.385,2.2,1.15,3c0.834,0.767,1.834,1.15,3,1.15   c1.168,0,2.15-0.383,2.951-1.15c0.533-0.533,0.898-1.15,1.1-1.85c0.1-0.333,0.15-0.716,0.15-1.15   C56.701,49.383,56.283,48.4,55.451,47.6z M50.551,15.3c1.334,1.333,2.916,2.067,4.75,2.2c-0.201,0.2-0.4,0.4-0.6,0.6   C51.9,20.833,50.5,24.2,50.5,28.2c0,3.967,1.4,7.333,4.201,10.1c2.799,2.8,6.166,4.2,10.1,4.2c1.867,0,3.617-0.3,5.25-0.9   c0.066,2.5,0.982,4.634,2.75,6.4c1.867,1.867,4.133,2.8,6.799,2.8c2.602,0,4.834-0.933,6.701-2.8   c0.566-0.567,1.049-1.184,1.449-1.85c1.066,0.566,2.268,0.85,3.6,0.85c1.268,0,2.434-0.267,3.5-0.8c0,0.3,0.018,0.6,0.051,0.9   c0.066,0.967,0.1,1.934,0.1,2.9c0,12.433-4.4,23.033-13.199,31.8C73,90.6,62.4,95,50,95c-12.434,0-23.049-4.4-31.85-13.2   C9.385,73.033,5,62.433,5,50c0-12.434,4.385-23.034,13.15-31.8C26.951,9.4,37.566,5,50,5c0.033,0,0.084,0,0.15,0   c-1.199,1.4-1.801,3.05-1.801,4.95C48.35,12.05,49.084,13.833,50.551,15.3z"></path></g></svg>