<svg xmlns="http://www.w3.org/2000/svg" xmlns:xlink="http://www.w3.org/1999/xlink" width="100" height="100" viewBox="0 0 100 100"><g><g transform="translate(50 50) scale(0.69 0.69) rotate(0) translate(-50 -50)" style="fill:#575962"><svg fill="#575962" xmlns="http://www.w3.org/2000/svg" xmlns:xlink="http://www.w3.org/1999/xlink" version="1.1" x="0px" y="0px" viewBox="0 0 1024 1024" style="enable-background:new 0 0 1024 1024;" xml:space="preserve"><path d="M891.4,215.3c-3.2-3.6-6.8-6.9-10.2-10.4c-17.1-17.1-34.3-34.3-51.4-51.4c-19.3-19.3-38.6-38.6-57.9-57.9  c-5.1-5.1-10.2-10.2-15.3-15.3c-11.5-11.5-26.7-18.9-43.3-18.4c-16.2,0.5-30,7.6-41.2,18.8c-5.7,5.7-11.5,11.5-17.2,17.2  c-19.9,19.9-39.8,39.8-59.7,59.7c-7.3,7.3-14.6,14.6-21.9,21.9l186.4,186.4c4.6,4.6,9.2,9.2,13.8,13.8c0.1,0.1,0.2,0.2,0.3,0.3  l14.1,14.1c0.4-0.3,0.7-0.7,1-1c22.2-22.1,44.3-44.3,66.5-66.5c10.8-10.8,21.6-21.4,32.3-32.3c0.5-0.5,0.9-0.9,1.4-1.4  c0.2-0.2,0.5-0.5,0.7-0.7C909.8,270.7,910.9,237.6,891.4,215.3z"></path><path d="M745.4,436.7c-14.9,14.9-29.8,29.8-44.8,44.8c-32.9,32.9-65.8,65.8-98.7,98.7  c-32.4,32.4-64.8,64.8-97.3,97.3c-28,28-56.1,56.1-84.1,84.1c-19.8,19.8-39.6,39.6-59.4,59.4c-7.5,7.5-14.7,15.3-22.4,22.4  c-6.6,6.1-13.1,5.9-20.9,5.8c-6.7,0-13.4,0-20.1,0c-21.4,0-42.8,0-64.2-0.1c-31.7,0-63.4,0-95.1-0.1c-10.8,0-20-9.2-20-20  c0-3.9,0-7.9,0-11.8c0-51.3-0.1-102.5-0.1-153.8c0-6.5-0.1-13,0-19.5c0.1-6.5,2.7-12.1,7.1-16.6c6.1-6.3,12.4-12.3,18.5-18.5  c29.2-29.2,58.4-58.4,87.6-87.6c40.7-40.7,81.4-81.4,122.1-122.1c39-39,78-78,117-117c20.1-20.1,40.1-40.2,60.2-60.2  c4.7,4.7,9.4,9.4,14.1,14.1c4.7,4.7,9.4,9.4,14.1,14.2c23.3,23.3,46.6,46.6,70,70c29.4,29.4,58.8,58.8,88.2,88.2l5.2,5.2  c3,3,5.9,5.9,8.9,8.9C736,427.2,740.7,432,745.4,436.7z"></path><path d="M694.5,912.1c-18.4,0-36.9,0-55.3,0c-44.3,0-88.6,0-132.8,0c-53.6,0-107.1,0-160.7,0c-46.3,0-92.6,0-138.9,0  c-22.5,0-45-0.4-67.5,0c-0.3,0-0.6,0-0.9,0c-15.7,0-30.7,13.8-30,30c0.7,16.3,13.2,30,30,30c18.4,0,36.9,0,55.3,0  c44.3,0,88.6,0,132.8,0c53.6,0,107.1,0,160.7,0c46.3,0,92.6,0,138.9,0c22.5,0,45,0.4,67.5,0c0.3,0,0.6,0,0.9,0  c15.7,0,30.7-13.8,30-30C723.8,925.9,711.3,912.1,694.5,912.1L694.5,912.1z"></path></svg></g></g></svg>