<svg xmlns="http://www.w3.org/2000/svg" xmlns:xlink="http://www.w3.org/1999/xlink" width="100" height="100" viewBox="0 0 100 100"><g><g transform="translate(50 50) scale(0.69 0.69) rotate(0) translate(-50 -50)" style="fill:#575962"><svg fill="#575962" xmlns="http://www.w3.org/2000/svg" xmlns:xlink="http://www.w3.org/1999/xlink" xml:space="preserve" version="1.1" style="shape-rendering:geometricPrecision;text-rendering:geometricPrecision;image-rendering:optimizeQuality;" viewBox="0 0 333 333" x="0px" y="0px" fill-rule="evenodd" clip-rule="evenodd"><defs><style type="text/css">
   
    .fil0 {fill:#575962}
   
  </style></defs><g><path class="fil0" d="M58 98l40 0 0 -24c0,-13 10,-23 22,-23l93 0c12,0 23,10 23,23l0 24 39 0c12,0 22,10 22,22l0 140c0,12 -10,22 -22,22l-217 0c-12,0 -22,-10 -22,-22l0 -140c0,-12 10,-22 22,-22zm56 0l105 0 0 -24c0,-3 -3,-6 -6,-6l-93 0c-3,0 -6,3 -6,6l0 24z"></path></g></svg></g></g></svg>