<svg xmlns="http://www.w3.org/2000/svg" xmlns:xlink="http://www.w3.org/1999/xlink" width="100" height="100" viewBox="0 0 100 100"><g><g transform="translate(50 50) scale(0.69 0.69) rotate(0) translate(-50 -50)" style="fill:#061d5c"><svg fill="#061d5c" xmlns="http://www.w3.org/2000/svg" viewBox="0 0 64 64" x="0px" y="0px"><title>grobal-business-global-marketing-media</title><g data-name="19-Grobal"><path d="M33,47.949V33H48.007c0,.393,0,.785,0,.941l2,.118c.015-.254.01-1.074.005-1.629L50,32a17.991,17.991,0,0,0-4.6-11.986l3.1-3.1,3.793,3.793a1,1,0,0,0,1.414,0l5-5a1,1,0,0,0,0-1.414l-9-9a1,1,0,0,0-1.414,0l-5,5a1,1,0,0,0,0,1.414L47.086,15.5l-3.093,3.093a17.849,17.849,0,0,0-8.14-4.168c-.129-.121-.206-.187-.206-.187l-.1.113h0A17.792,17.792,0,0,0,32,14a18.012,18.012,0,0,0-3.553.356l-.1-.115c-.024.021-.1.091-.2.185a17.989,17.989,0,0,0,0,35.148c.1.094.179.164.2.185l.1-.115a17.84,17.84,0,0,0,7.112,0l-.4-1.959A15.907,15.907,0,0,1,33,47.949ZM49,7.414,56.586,15,53,18.586,45.414,11ZM29.123,47.727a21.837,21.837,0,0,1-4.105-6.189A15.914,15.914,0,0,1,31,40.038v7.911A15.874,15.874,0,0,1,29.123,47.727ZM31,16.051v7.912a15.915,15.915,0,0,1-5.98-1.488,22.045,22.045,0,0,1,4.107-6.2A16.018,16.018,0,0,1,31,16.051Zm3.871.217a21.513,21.513,0,0,1,4.124,6.187A15.9,15.9,0,0,1,33,23.962V16.049A15.5,15.5,0,0,1,34.871,16.268ZM47.956,31h-4.99a25.251,25.251,0,0,0-1.457-7.632A15.346,15.346,0,0,0,44,21.447,16,16,0,0,1,47.956,31Zm-7.212-9.53a24.626,24.626,0,0,0-2.4-4.151,15.951,15.951,0,0,1,4.254,2.7A13.52,13.52,0,0,1,40.744,21.47ZM31,31H23.039a23.175,23.175,0,0,1,1.25-6.657A17.968,17.968,0,0,0,31,25.962Zm-7.757-9.523a13.235,13.235,0,0,1-1.831-1.441,16.056,16.056,0,0,1,4.244-2.718A24.4,24.4,0,0,0,23.243,21.477ZM20,21.451a15.4,15.4,0,0,0,2.486,1.915A25.358,25.358,0,0,0,21.038,31H16.051A15.908,15.908,0,0,1,20,21.451ZM21.038,33a25.358,25.358,0,0,0,1.45,7.634A15.4,15.4,0,0,0,20,42.549,15.908,15.908,0,0,1,16.051,33Zm2.211,9.535a24.372,24.372,0,0,0,2.407,4.147,16.034,16.034,0,0,1-4.24-2.715A13.473,13.473,0,0,1,23.249,42.535ZM31,38.038a17.97,17.97,0,0,0-6.717,1.622A23.238,23.238,0,0,1,23.039,33H31Zm2-12.076a17.94,17.94,0,0,0,6.734-1.631A23.366,23.366,0,0,1,40.967,31H33Z"></path><rect x="14" y="6" width="2" height="2"></rect><rect x="10" y="6" width="2" height="2"></rect><rect x="6" y="6" width="2" height="2"></rect><path d="M3,12H14.586l3.707,3.707A1,1,0,0,0,19,16a.987.987,0,0,0,.383-.076A1,1,0,0,0,20,15V3a1,1,0,0,0-1-1H3A1,1,0,0,0,2,3v8A1,1,0,0,0,3,12ZM4,4H18v8.586l-2.293-2.293A1,1,0,0,0,15,10H4Z"></path><rect x="14" y="56" width="2" height="2"></rect><rect x="10" y="56" width="2" height="2"></rect><rect x="6" y="56" width="2" height="2"></rect><path d="M19.383,48.076a1,1,0,0,0-1.09.217L14.586,52H3a1,1,0,0,0-1,1v8a1,1,0,0,0,1,1H19a1,1,0,0,0,1-1V49A1,1,0,0,0,19.383,48.076ZM18,60H4V54H15a1,1,0,0,0,.707-.293L18,51.414Z"></path><rect x="52" y="2" width="2" height="3"></rect><rect x="56.586" y="5" width="2.828" height="2" transform="translate(12.745 42.77) rotate(-45)"></rect><rect x="59" y="10" width="3" height="2"></rect><path d="M60.707,50.293,52.89,42.476l-1.929-6.75a1,1,0,0,0-1.668-.433l-3.49,3.49L42.447,37.1a1,1,0,0,0-1.154.188l-3,3a1,1,0,0,0-.188,1.154L39.783,44.8l-3.49,3.49a1,1,0,0,0,.432,1.669l6.752,1.929L44.586,53l-4.293,4.293a1,1,0,0,0,0,1.414l3,3a1,1,0,0,0,1.414,0L49,57.414l2.293,2.293a.987.987,0,0,0,.289.2l.381.176a6.964,6.964,0,0,0,2.978.685,6.657,6.657,0,0,0,3.579-1.053,6.806,6.806,0,0,0,2.352-9.206A1.028,1.028,0,0,0,60.707,50.293ZM41.274,43.312,40.217,41.2l1.98-1.98,2.115,1.057-1.519,1.519Zm8.231-5.4,1.372,4.8-7.168,7.168-4.8-1.371ZM44,59.586,42.414,58,46,54.414,47.586,56ZM45.414,51,52,44.414,58.586,51,52,57.586Zm12.035,7.026a4.662,4.662,0,0,1-3.65.589l5.842-5.842a4.637,4.637,0,0,1,.139,1.117A4.966,4.966,0,0,1,57.449,58.026Z"></path><rect x="44" y="34" width="2" height="3"></rect><rect x="36" y="34.586" width="2" height="2.828" transform="translate(-14.619 36.707) rotate(-45)"></rect><rect x="34" y="42" width="3" height="2"></rect></g></svg></g></g></svg>
