<svg fill="#18292D" xmlns="http://www.w3.org/2000/svg" xmlns:xlink="http://www.w3.org/1999/xlink" version="1.1" x="0px" y="0px" viewBox="0 0 65 65" enable-background="new 0 0 65 65" xml:space="preserve"><path d="M64.584,36.658V7.41c0-2.455-1.997-4.452-4.452-4.452H4.868c-2.455,0-4.452,1.997-4.452,4.452v29.248H64.584z M32.501,8.844  c7.313,0,13.263,5.337,13.263,11.896c0,6.56-5.949,11.897-13.263,11.897c-1.584,0-3.124-0.26-4.592-0.747l-6.072,1.818  c-0.004,0.001-0.009,0.001-0.013,0.002c-0.133,0.039-0.271,0.06-0.411,0.061c-0.002,0-0.005,0.001-0.007,0.001c0,0,0,0,0,0l0,0  c-0.14,0-0.279-0.027-0.417-0.067c-0.04-0.012-0.078-0.027-0.116-0.042c-0.044-0.017-0.09-0.026-0.134-0.048  c-0.066-0.032-0.124-0.074-0.182-0.115c-0.016-0.011-0.033-0.019-0.048-0.03c-0.114-0.085-0.209-0.186-0.292-0.296  c-0.018-0.022-0.033-0.046-0.05-0.07c-0.08-0.12-0.145-0.248-0.188-0.384c-0.001-0.006-0.006-0.01-0.008-0.016  c-0.011-0.036-0.013-0.071-0.021-0.107c-0.012-0.053-0.025-0.105-0.031-0.159c-0.005-0.049-0.004-0.097-0.005-0.145  c0-0.049-0.002-0.098,0.001-0.146c0.004-0.052,0.015-0.102,0.025-0.152c0.008-0.045,0.015-0.09,0.028-0.134  c0.017-0.056,0.04-0.109,0.062-0.163c0.013-0.03,0.02-0.062,0.035-0.092l1.844-3.703c-1.729-2.055-2.671-4.56-2.671-7.161  C19.236,14.181,25.187,8.844,32.501,8.844z"></path><path d="M0.416,39.658v5.305c0,2.454,1.997,4.451,4.452,4.451h20.527c-0.657,2.749-3.032,4.707-5.17,6.463  c-1.764,1.448-3.284,2.716-3.467,4.344c-0.022,0.104-0.036,0.21-0.036,0.32c0,0.828,0.671,1.511,1.5,1.511  c0.037,0,0.072-0.008,0.108-0.011h28.449c0.828,0,1.5-0.672,1.5-1.5c0-0.11-0.014-0.217-0.036-0.32  c-0.183-1.628-1.703-2.896-3.467-4.344c-2.139-1.756-4.514-3.714-5.17-6.463h20.526c2.455,0,4.452-1.997,4.452-4.451v-5.305H0.416z   M32.5,45.031c-1.102,0-1.995-0.895-1.995-1.996s0.893-1.994,1.995-1.994c1.102,0,1.995,0.893,1.995,1.994  S33.602,45.031,32.5,45.031z"></path><path d="M24.779,26.605c0.127,0.131,0.228,0.282,0.299,0.447c0.008,0.018,0.016,0.034,0.023,0.052  c0.063,0.162,0.096,0.333,0.101,0.508c0,0.018,0.002,0.035,0.002,0.053c-0.001,0.169-0.035,0.338-0.096,0.503  c-0.008,0.022-0.015,0.043-0.024,0.065c-0.012,0.027-0.018,0.055-0.031,0.082l-0.76,1.525l3.2-0.958  c0.013-0.004,0.026-0.004,0.04-0.008c0.053-0.014,0.108-0.022,0.163-0.031c0.043-0.007,0.086-0.015,0.13-0.018  c0.051-0.003,0.102,0,0.152,0.001c0.048,0.002,0.095,0.002,0.142,0.008c0.045,0.006,0.09,0.018,0.135,0.028  c0.052,0.012,0.104,0.023,0.155,0.041c0.013,0.004,0.026,0.005,0.039,0.01c1.282,0.479,2.645,0.722,4.053,0.722  c5.659,0,10.263-3.991,10.263-8.897s-4.604-8.896-10.263-8.896c-5.66,0-10.265,3.991-10.265,8.896c0,2.148,0.898,4.224,2.529,5.844  C24.771,26.591,24.773,26.599,24.779,26.605z M36.489,16.618c1.102,0,1.995,0.893,1.995,1.994s-0.894,1.996-1.995,1.996  s-1.994-0.895-1.994-1.996S35.388,16.618,36.489,16.618z M34.166,22.866c0.689-0.454,1.622-0.264,2.077,0.43  c0.455,0.692,0.262,1.623-0.431,2.077c-1.006,0.661-2.159,0.992-3.313,0.992s-2.307-0.331-3.313-0.991  c-0.692-0.455-0.885-1.385-0.43-2.078c0.455-0.692,1.386-0.885,2.078-0.43C31.846,23.531,33.154,23.53,34.166,22.866z M28.51,16.618  c1.102,0,1.995,0.893,1.995,1.994s-0.894,1.996-1.995,1.996s-1.995-0.895-1.995-1.996S27.409,16.618,28.51,16.618z"></path></svg>