<svg fill="#FFFFFF" xmlns="http://www.w3.org/2000/svg" xmlns:xlink="http://www.w3.org/1999/xlink" version="1.1" x="0px" y="0px" viewBox="206 206 100 100" enable-background="new 206 206 100 100" xml:space="preserve"><path d="M286.361,249.016c-4.71,0-8.646,3.375-9.52,7.834l-16.649-2.787c0.07-0.504,0.109-1.019,0.109-1.543  c0-2.683-0.968-5.142-2.572-7.049l15.318-13.527c1.077,1.113,2.584,1.806,4.251,1.806c0.098,0,0.193-0.003,0.29-0.007  c0,0,0,0,0.002,0s0.002,0,0.004,0c3.127-0.155,5.623-2.748,5.623-5.913c0-2.209-1.218-4.138-3.015-5.155  c-0.005-0.002-0.009-0.005-0.015-0.007c-0.854-0.48-1.842-0.756-2.89-0.756c-0.176,0-0.351,0.009-0.521,0.023h-0.006  c-2.841,0.252-5.113,2.521-5.367,5.362c0,0.005-0.002,0.011-0.002,0.014c-0.015,0.171-0.023,0.344-0.023,0.519  c0,1.404,0.491,2.694,1.312,3.711l-15.319,13.525c-2.004-2.159-4.865-3.513-8.036-3.513c-2.406,0-4.633,0.779-6.442,2.099  l-8.891-11.624c1.442-1.19,2.435-2.906,2.685-4.851c0.002-0.007,0.004-0.012,0.004-0.02c0.038-0.312,0.061-0.626,0.061-0.949  c0-0.959-0.182-1.878-0.511-2.722c-0.003-0.013-0.007-0.023-0.015-0.036c-0.371-0.941-0.927-1.792-1.622-2.504  c-0.003-0.003-0.005-0.009-0.009-0.013c-0.004-0.003-0.007-0.003-0.011-0.007c-0.697-0.709-1.534-1.282-2.465-1.672  c-0.011-0.005-0.02-0.009-0.03-0.013c-0.888-0.367-1.858-0.571-2.877-0.571c-4.157,0-7.539,3.381-7.539,7.539  c0,1.021,0.205,1.995,0.574,2.885c0.002,0.005,0.003,0.011,0.007,0.018c0.389,0.931,0.961,1.766,1.669,2.465  c0.004,0.005,0.005,0.011,0.011,0.016s0.015,0.009,0.022,0.014c0.709,0.693,1.557,1.246,2.495,1.617  c0.013,0.005,0.027,0.011,0.04,0.014c0.845,0.33,1.763,0.511,2.721,0.511c0.322,0,0.638-0.023,0.949-0.061c0,0,0.001,0,0.003,0  c0.007,0,0.013-0.003,0.02-0.003c1.251-0.162,2.408-0.632,3.389-1.331l8.893,11.626c-2.496,2.013-4.097,5.092-4.097,8.54  c0,2.748,1.018,5.26,2.692,7.186l-12.2,11.133c-0.092-0.096-0.187-0.188-0.284-0.275c-0.004-0.006-0.006-0.011-0.009-0.015  c-0.005-0.005-0.013-0.007-0.018-0.013c-0.742-0.673-1.619-1.2-2.583-1.539c-0.015-0.007-0.029-0.011-0.045-0.017  c-0.766-0.263-1.586-0.406-2.44-0.406c-4.157,0-7.541,3.383-7.541,7.54c0,0.854,0.146,1.673,0.407,2.438  c0.005,0.016,0.009,0.032,0.017,0.047c0.338,0.965,0.864,1.84,1.538,2.58c0.005,0.007,0.009,0.016,0.014,0.021  c0.005,0.005,0.011,0.007,0.016,0.011c0.668,0.728,1.479,1.321,2.384,1.743c0.009,0.003,0.017,0.007,0.025,0.011  c0.956,0.44,2.021,0.688,3.14,0.688c0.104,0,0.209-0.004,0.312-0.007h0.003c3.907-0.162,7.055-3.31,7.217-7.217  c0.003-0.104,0.007-0.211,0.007-0.315c0-1.121-0.247-2.186-0.688-3.142c-0.002-0.007-0.005-0.015-0.009-0.021  c-0.29-0.621-0.659-1.197-1.098-1.714l12.2-11.133c1.999,2.083,4.806,3.383,7.912,3.383c1.314,0,2.575-0.232,3.743-0.659l7.5,19.178  c-2.066,0.924-3.513,2.998-3.513,5.407c0,3.262,2.654,5.918,5.919,5.918c3.264,0,5.92-2.656,5.92-5.918  c0-3.265-2.656-5.92-5.92-5.92c-0.665,0-1.306,0.111-1.901,0.314l-7.503-19.176c3.329-1.402,5.823-4.403,6.521-8.035l16.652,2.787  c-0.061,0.436-0.095,0.881-0.095,1.332c0,5.35,4.352,9.701,9.701,9.701s9.699-4.352,9.699-9.701  C296.06,253.368,291.711,249.016,286.361,249.016z M278.338,233.107l4.238-4.238C282.157,231.004,280.471,232.687,278.338,233.107z   M275.984,222.614l-3.901,3.901C272.563,224.603,274.072,223.096,275.984,222.614z M272.456,230.17  c-0.344-0.708-0.537-1.501-0.537-2.341c0-0.135,0.008-0.27,0.017-0.403l4.959-4.958c0.133-0.011,0.268-0.016,0.404-0.016  c0.838,0,1.632,0.192,2.339,0.536l-0.918,0.918c-0.106,0.104-0.106,0.275,0,0.382c0.052,0.052,0.123,0.079,0.191,0.079  s0.138-0.027,0.19-0.079l1.028-1.028c0.66,0.411,1.226,0.96,1.656,1.608l-1.088,1.087c-0.105,0.104-0.105,0.276,0,0.382  c0.053,0.052,0.123,0.079,0.191,0.079c0.07,0,0.139-0.027,0.19-0.079l0.988-0.988c0.39,0.744,0.609,1.586,0.609,2.481  c0,0.06-0.002,0.119-0.004,0.178l-5.196,5.196c-0.06,0.002-0.119,0.005-0.179,0.005c-0.896,0-1.739-0.221-2.482-0.61l4.474-4.474  c0.106-0.106,0.106-0.275,0-0.382c-0.105-0.106-0.277-0.106-0.381,0l-4.573,4.573c-0.648-0.428-1.198-0.994-1.608-1.655l4.112-4.112  c0.106-0.104,0.106-0.275,0-0.381c-0.104-0.106-0.275-0.106-0.382,0L272.456,230.17z M227.718,219.372l-5.344,5.344  C222.956,222.053,225.055,219.954,227.718,219.372z M224.513,231.394l4.508-4.508c0.106-0.106,0.106-0.277,0-0.382  c-0.104-0.106-0.275-0.106-0.382,0l-4.51,4.51c-0.54-0.569-0.983-1.229-1.309-1.954l3.75-3.75c0.106-0.106,0.106-0.277,0-0.381  c-0.106-0.106-0.275-0.106-0.381,0l-3.585,3.584c-0.254-0.722-0.393-1.496-0.393-2.305c0-0.2,0.011-0.398,0.027-0.594l6.377-6.377  c0.196-0.017,0.395-0.027,0.594-0.027c0.809,0,1.583,0.139,2.305,0.391l-3.066,3.066c-0.106,0.104-0.106,0.275,0,0.382  c0.052,0.052,0.123,0.079,0.191,0.079s0.139-0.027,0.191-0.079l3.23-3.23c0.726,0.324,1.387,0.769,1.958,1.309l-3.59,3.588  c-0.106,0.104-0.106,0.276,0,0.382c0.052,0.052,0.123,0.079,0.191,0.079s0.139-0.027,0.191-0.079l3.586-3.585  c0.529,0.583,0.961,1.255,1.271,1.992l-9.161,9.161C225.77,232.356,225.096,231.924,224.513,231.394z M230.983,232.983l0.385-0.387  c0.106-0.104,0.106-0.275,0-0.382c-0.106-0.106-0.275-0.106-0.382,0l-0.945,0.945c-0.272,0.031-0.549,0.05-0.83,0.05  c-0.747,0-1.469-0.121-2.146-0.338l8.808-8.808c0.22,0.677,0.338,1.397,0.338,2.146c0,0.281-0.018,0.559-0.05,0.83l-3.302,3.302  c-0.106,0.104-0.106,0.275,0,0.382c0.052,0.052,0.123,0.079,0.191,0.079s0.139-0.027,0.191-0.079l2.744-2.744  C235.345,230.419,233.42,232.343,230.983,232.983z M216.479,276.114c0-3.052,1.964-5.651,4.694-6.607l-3.444,3.444  c-0.106,0.104-0.106,0.275,0,0.382c0.052,0.052,0.123,0.079,0.191,0.079s0.139-0.027,0.191-0.079l4.102-4.102  c0.411-0.076,0.833-0.117,1.268-0.117c0.643,0,1.266,0.09,1.858,0.252l-8.605,8.606C216.57,277.379,216.479,276.757,216.479,276.114  z M230.478,276.114c0,0.066-0.001,0.134-0.003,0.2l-0.646,0.646c-0.106,0.104-0.106,0.275,0,0.382  c0.052,0.052,0.123,0.079,0.191,0.079s0.139-0.027,0.191-0.079l0.191-0.191c-0.452,3.03-2.854,5.435-5.886,5.885l3.49-3.49  c0.106-0.105,0.106-0.275,0-0.381c-0.106-0.106-0.276-0.106-0.382,0l-3.943,3.942c-0.066,0.002-0.133,0.006-0.2,0.006  c-0.909,0-1.777-0.177-2.575-0.493l9.082-9.082C230.303,274.335,230.478,275.204,230.478,276.114z M229.751,273.01l-9.375,9.375  c-0.706-0.352-1.343-0.817-1.891-1.374l5.283-5.282c0.106-0.106,0.106-0.275,0-0.382s-0.275-0.106-0.382,0l-5.265,5.265  c-0.511-0.608-0.92-1.304-1.203-2.062l8.997-8.997c0.758,0.28,1.453,0.691,2.062,1.202l-2.715,2.716  c-0.106,0.105-0.106,0.275,0,0.382c0.052,0.052,0.122,0.079,0.19,0.079c0.069,0,0.139-0.027,0.191-0.079l2.733-2.733  C228.933,271.664,229.4,272.304,229.751,273.01z M249.335,244.344c2.339,0,4.451,0.989,5.943,2.569l-1.35,1.192  c-1.16-1.208-2.789-1.962-4.593-1.962c-1.358,0-2.618,0.429-3.653,1.156l-1.093-1.429  C245.927,244.909,247.565,244.344,249.335,244.344z M241.159,252.52c0-2.546,1.168-4.824,3-6.325l1.095,1.432  c-1.401,1.17-2.293,2.929-2.293,4.894c0,1.556,0.56,2.983,1.491,4.093l-1.329,1.213C241.899,256.396,241.159,254.544,241.159,252.52  z M249.335,260.696c-2.292,0-4.364-0.948-5.85-2.472l1.329-1.212c1.156,1.163,2.756,1.884,4.521,1.884  c0.724,0,1.419-0.123,2.069-0.346l0.657,1.678C251.208,260.531,250.291,260.696,249.335,260.696z M252.564,260.03l-0.658-1.678  c1.85-0.817,3.239-2.49,3.668-4.514l1.777,0.297C256.816,256.79,254.992,258.982,252.564,260.03z M257.437,253.602l-1.775-0.297  c0.03-0.257,0.048-0.519,0.048-0.785c0-1.52-0.535-2.915-1.424-4.011l1.351-1.192c1.17,1.416,1.875,3.229,1.875,5.204  C257.511,252.887,257.484,253.247,257.437,253.602z M286.361,267.876c-5.051,0-9.161-4.11-9.161-9.161  c0-0.421,0.032-0.837,0.088-1.244l1.6,0.269c-0.042,0.32-0.067,0.645-0.067,0.976c0,4.158,3.384,7.541,7.541,7.541  s7.539-3.383,7.539-7.541c0-4.157-3.382-7.539-7.539-7.539c-3.641,0-6.688,2.593-7.388,6.03l-1.599-0.268  c0.83-4.203,4.543-7.382,8.986-7.382c5.05,0,9.159,4.108,9.159,9.159C295.52,263.766,291.411,267.876,286.361,267.876z"></path></svg>