<svg fill="#18292D" xmlns="http://www.w3.org/2000/svg" xmlns:xlink="http://www.w3.org/1999/xlink" version="1.1" x="0px" y="0px" viewBox="0 0 95 95" enable-background="new 0 0 95 95" xml:space="preserve"><g><g><path d="M57.174,57.061H38.078c-2.316,0-4.199-1.883-4.199-4.199V33.766c0-2.314,1.883-4.199,4.199-4.199h19.096    c2.316,0,4.201,1.885,4.201,4.199v19.096C61.375,55.178,59.49,57.061,57.174,57.061z M38.078,31.566    c-1.213,0-2.199,0.986-2.199,2.199v19.096c0,1.213,0.986,2.199,2.199,2.199h19.096c1.213,0,2.201-0.986,2.201-2.199V33.766    c0-1.213-0.988-2.199-2.201-2.199H38.078z M42.152,50.074V36.553l14.227,6.762L42.152,50.074z M44.152,39.717v7.193l7.566-3.596    L44.152,39.717z"></path></g><g><g><path d="M86.477,74.98H8.523c-2.111,0-3.828-1.715-3.828-3.824c0-2.111,1.717-3.828,3.828-3.828h31.348v2.828h15.258v-2.828     h31.348c2.111,0,3.828,1.717,3.828,3.828C90.305,73.266,88.588,74.98,86.477,74.98z M8.523,69.328     c-1.008,0-1.828,0.82-1.828,1.828c0,1.006,0.82,1.824,1.828,1.824h77.953c1.008,0,1.828-0.818,1.828-1.824     c0-1.008-0.82-1.828-1.828-1.828H57.129v2.828H37.871v-2.828H8.523z"></path></g><g><path d="M83.313,66.65H11.688V25.482c0-3.012,2.451-5.463,5.463-5.463H77.85c3.012,0,5.463,2.451,5.463,5.463V66.65z      M13.688,64.65h67.625V25.482c0-1.91-1.555-3.463-3.463-3.463H17.15c-1.91,0-3.463,1.553-3.463,3.463V64.65z M77.781,61.998     H17.221V24.889h60.561V61.998z M19.221,59.998h56.561V26.889H19.221V59.998z"></path></g></g></g></svg>